# xmcd
#
# Track frame offsets: 
#        150
#        18980
#        36672
#        52761
#        69127
#        86075
#        102830
#        122488
#        139341
#        158904
#        179546
#        195624
#        222503
#        240715
#        262542
#
# Disc length: 3821 seconds
#
# Revision: 3
# Processed by: cddbd v1.5.2PL0 Copyright (c) Steve Scherf et al.
# Submitted via: ExactAudioCopy v1.0b3
#
DISCID=cb0eeb0f
DTITLE=Isabelle Boulay - Tout un jour
DYEAR=2004
DGENRE=variété française
TTITLE0=C'est quoi, c'est l'habitude
TTITLE1=Une autre vie
TTITLE2=Ici
TTITLE3=Aimons-nous
TTITLE4=Celui qui dort avec moi
TTITLE5=Un chanteur sans mélodie
TTITLE6=En t'attendant
TTITLE7=Tout un jour
TTITLE8=J'irai jusqu'au bout
TTITLE9=Jamais
TTITLE10=Tout au bout de nos peines (avec Johnny Hallyday)
TTITLE11=Je sais ton nom
TTITLE12=Telle que je suis
TTITLE13=Je voudrais
TTITLE14=Opendisc
EXTD=YEAR: 2004
EXTT0=
EXTT1=
EXTT2=
EXTT3=
EXTT4=
EXTT5=
EXTT6=
EXTT7=
EXTT8=
EXTT9=
EXTT10=
EXTT11=
EXTT12=
EXTT13=
EXTT14=
PLAYORDER=
